<svg width="181" height="181" viewBox="0 0 181 181" fill="none" xmlns="http://www.w3.org/2000/svg">
<g clip-path="url(#clip0_930_327)">
<path fill-rule="evenodd" clip-rule="evenodd" d="M98.815 66.3461C100.647 62.1543 100.899 57.472 98.9261 52.413C92.8218 36.7633 79.6769 31.3661 64.6914 31.7927C42.8099 32.4162 16.9713 45.642 4.50704 56.534C3.91611 57.0492 3.85791 57.9455 4.37279 58.5329C4.88798 59.1238 5.78447 59.1854 6.3754 58.6702C18.4723 48.0978 43.5377 35.2343 64.7739 34.6277C78.5337 34.2364 90.6773 39.0708 96.282 53.4455C97.9532 57.7225 97.7274 61.6731 96.1872 65.2212C93.853 64.2504 91.5221 63.3583 89.1983 62.5482C82.7832 60.3138 65.2831 57.6654 52.8167 60.315C43.8745 62.218 37.5269 66.8369 38.5331 75.6311C39.0935 80.5191 42.4558 83.7965 47.5021 85.5399C54.4384 87.9407 64.6946 87.3816 74.3099 84.4244C82.3158 81.9636 89.8649 77.8542 94.7069 72.5369C95.7687 71.3661 96.7073 70.1414 97.4936 68.8617C129.611 82.9407 160.996 111.568 175.88 142.482C176.222 143.185 177.068 143.485 177.774 143.143C178.481 142.804 178.777 141.956 178.439 141.252C163.31 109.835 131.462 80.7273 98.815 66.3461ZM94.8401 67.7319C92.6444 66.8245 90.4514 65.9887 88.2649 65.2277C82.1168 63.0885 65.3522 60.5517 53.408 63.0909C46.0776 64.6482 40.5264 68.1017 41.3508 75.3093C41.786 79.0943 44.5228 81.5066 48.4284 82.861C52.7263 84.3464 58.3901 84.5626 64.337 83.7443C73.3657 82.502 83.0436 78.8639 89.6432 73.4289C91.7348 71.7081 93.5121 69.8027 94.8401 67.7319Z" fill="url(#paint0_linear_930_327)"/>
<path fill-rule="evenodd" clip-rule="evenodd" d="M127.414 121.264C144.28 122.656 162.924 131.971 176.2 142.606C176.81 143.095 177.704 142.996 178.193 142.385C178.682 141.775 178.586 140.881 177.975 140.392C164.286 129.423 145.036 119.874 127.649 118.437C126.871 118.372 126.185 118.953 126.12 119.735C126.055 120.513 126.636 121.199 127.414 121.264Z" fill="#77FB0F"/>
<path fill-rule="evenodd" clip-rule="evenodd" d="M178.258 140.184C170.232 128.604 167.634 109.993 169.969 96.0556C170.099 95.2825 169.578 94.5483 168.805 94.4218C168.032 94.2918 167.302 94.812 167.172 95.5851C164.726 110.186 167.518 129.668 175.927 141.8C176.372 142.443 177.259 142.603 177.903 142.159C178.546 141.711 178.706 140.827 178.258 140.184Z" fill="#77FB0F"/>
</g>
<defs>
<linearGradient id="paint0_linear_930_327" x1="173.428" y1="82.8981" x2="-27.1006" y2="66.5124" gradientUnits="userSpaceOnUse">
<stop stop-color="#B8FB2B"/>
<stop offset="0.942708" stop-color="#3A3E32" stop-opacity="0"/>
</linearGradient>
<clipPath id="clip0_930_327">
<rect width="166.822" height="166.822" fill="white" transform="translate(166.188) rotate(85.0023)"/>
</clipPath>
</defs>
</svg>
